<svg xmlns="http://www.w3.org/2000/svg" viewBox="0 0 512 512">
  <rect width="512" height="512" rx="96" fill="#16161a"/>
  <path d="M256 96c32 0 72-19.2 99.84-43.2a14.04 14.04 0 0 1 18.24 0C401.28 76.8 441.6 96 473.6 96a12 12 0 0 1 12 12v84c0 100-70 150-230.28 178.8a12.24 12.24 0 0 1-8.04-.12C87.6 342 26.4 292 26.4 192V108a12 12 0 0 1 12-12c32 0 72.32-19.2 99.84-43.2a14.04 14.04 0 0 1 18.24 0C183.68 76.8 224 96 256 96z" fill="none" stroke="#22c55e" stroke-width="28" stroke-linecap="round" stroke-linejoin="round" transform="translate(0, 48)"/>
</svg>
